<?xml version="1.0" encoding="utf-8"?>
<!-- Generator: Adobe Illustrator 24.0.0, SVG Export Plug-In . SVG Version: 6.00 Build 0)  -->
<svg version="1.1" id="Layer_1" xmlns="http://www.w3.org/2000/svg" xmlns:xlink="http://www.w3.org/1999/xlink" x="0px" y="0px"
	 viewBox="0 0 375 375" style="enable-background:new 0 0 375 375;" xml:space="preserve">
<style type="text/css">
	.st0{fill:#FFA69E;}
	.st1{fill:#B8F2E6;}
	.st2{fill:#FFFFFF;}
	.st3{clip-path:url(#SVGID_2_);}
	.st4{clip-path:url(#SVGID_4_);}
	.st5{fill:#3589A1;}
	.st6{clip-path:url(#SVGID_6_);}
	.st7{clip-path:url(#SVGID_8_);}
	.st8{clip-path:url(#SVGID_10_);}
</style>
<g id="surface1">
	<path class="st0" d="M188.9,84.4c-1.7,0-3.4,0-5.1,0.1c-1.7,0.1-3.4,0.2-5,0.4s-3.4,0.4-5,0.6c-1.7,0.2-3.3,0.5-5,0.9
		c-1.7,0.3-3.3,0.7-4.9,1.1s-3.3,0.9-4.9,1.4c-1.6,0.5-3.2,1-4.8,1.6c-1.6,0.6-3.2,1.2-4.7,1.8c-1.6,0.6-3.1,1.3-4.6,2.1
		c-1.5,0.7-3,1.5-4.5,2.3c-1.5,0.8-3,1.6-4.4,2.5c-1.4,0.9-2.9,1.8-4.3,2.7c-1.4,0.9-2.8,1.9-4.1,2.9c-1.4,1-2.7,2-4,3.1
		c-1.3,1.1-2.6,2.2-3.8,3.3c-1.2,1.1-2.5,2.3-3.7,3.5c-1.2,1.2-2.4,2.4-3.5,3.7c-1.1,1.2-2.2,2.5-3.3,3.8s-2.1,2.6-3.1,4
		s-2,2.7-2.9,4.1s-1.8,2.8-2.7,4.3c-0.9,1.4-1.7,2.9-2.5,4.4s-1.6,3-2.3,4.5c-0.7,1.5-1.4,3.1-2.1,4.6c-0.6,1.6-1.3,3.1-1.8,4.7
		c-0.6,1.6-1.1,3.2-1.6,4.8c-0.5,1.6-0.9,3.2-1.3,4.9s-0.8,3.3-1.1,4.9c-0.3,1.7-0.6,3.3-0.9,5c-0.2,1.7-0.5,3.3-0.6,5
		c-0.2,1.7-0.3,3.4-0.4,5.1c-0.1,1.7-0.1,3.4-0.1,5.1s0,3.4,0.1,5.1c0.1,1.7,0.2,3.4,0.4,5.1c0.2,1.7,0.4,3.4,0.6,5
		c0.2,1.7,0.5,3.3,0.9,5c0.3,1.7,0.7,3.3,1.1,4.9s0.9,3.3,1.3,4.9c0.5,1.6,1,3.2,1.6,4.8c0.6,1.6,1.2,3.2,1.8,4.7
		c0.6,1.6,1.3,3.1,2.1,4.6c0.7,1.5,1.5,3,2.3,4.5s1.6,3,2.5,4.4c0.9,1.4,1.8,2.9,2.7,4.3s1.9,2.8,2.9,4.1s2,2.7,3.1,4
		s2.2,2.6,3.3,3.8c1.1,1.2,2.3,2.5,3.5,3.7c1.2,1.2,2.4,2.4,3.7,3.5c1.3,1.1,2.5,2.2,3.8,3.3c1.3,1.1,2.6,2.1,4,3.1
		c1.4,1,2.7,2,4.1,2.9c1.4,0.9,2.8,1.8,4.3,2.7c1.4,0.9,2.9,1.7,4.4,2.5c1.5,0.8,3,1.6,4.5,2.3c1.5,0.7,3.1,1.4,4.6,2.1
		c1.6,0.6,3.1,1.3,4.7,1.8c1.6,0.6,3.2,1.1,4.8,1.6c1.6,0.5,3.2,0.9,4.9,1.4s3.3,0.8,4.9,1.1c1.7,0.3,3.3,0.6,5,0.9
		c1.7,0.2,3.3,0.5,5,0.6s3.4,0.3,5,0.4c1.7,0.1,3.4,0.1,5.1,0.1s3.4,0,5.1-0.1s3.4-0.2,5-0.4s3.4-0.4,5-0.6c1.7-0.2,3.3-0.5,5-0.9
		c1.7-0.3,3.3-0.7,4.9-1.1s3.3-0.9,4.9-1.4c1.6-0.5,3.2-1,4.8-1.6c1.6-0.6,3.2-1.2,4.7-1.8c1.6-0.6,3.1-1.3,4.6-2.1
		c1.5-0.7,3-1.5,4.5-2.3c1.5-0.8,3-1.6,4.4-2.5c1.4-0.9,2.9-1.8,4.3-2.7c1.4-0.9,2.8-1.9,4.1-2.9c1.4-1,2.7-2,4-3.1
		c1.3-1.1,2.6-2.2,3.8-3.3s2.5-2.3,3.7-3.5c1.2-1.2,2.4-2.4,3.5-3.7s2.2-2.5,3.3-3.8s2.1-2.6,3.1-4c1-1.4,2-2.7,2.9-4.1
		s1.8-2.8,2.7-4.3c0.9-1.4,1.7-2.9,2.5-4.4c0.8-1.5,1.6-3,2.3-4.5c0.7-1.5,1.4-3.1,2.1-4.6s1.3-3.1,1.8-4.7c0.6-1.6,1.1-3.2,1.6-4.8
		c0.5-1.6,0.9-3.2,1.3-4.9s0.8-3.3,1.1-4.9c0.3-1.7,0.6-3.3,0.9-5c0.2-1.7,0.5-3.3,0.6-5c0.2-1.7,0.3-3.4,0.4-5.1
		c0.1-1.7,0.1-3.4,0.1-5.1s0-3.4-0.1-5.1c-0.1-1.7-0.2-3.4-0.4-5.1c-0.2-1.7-0.4-3.4-0.6-5c-0.2-1.7-0.5-3.3-0.9-5
		c-0.3-1.7-0.7-3.3-1.1-4.9s-0.9-3.3-1.3-4.9c-0.5-1.6-1-3.2-1.6-4.8c-0.6-1.6-1.2-3.2-1.8-4.7s-1.3-3.1-2.1-4.6
		c-0.7-1.5-1.5-3-2.3-4.5c-0.8-1.5-1.6-3-2.5-4.4c-0.9-1.4-1.8-2.9-2.7-4.3s-1.9-2.8-2.9-4.1c-1-1.4-2-2.7-3.1-4s-2.2-2.6-3.3-3.8
		s-2.3-2.5-3.5-3.7c-1.2-1.2-2.4-2.4-3.7-3.5s-2.5-2.2-3.8-3.3c-1.3-1.1-2.6-2.1-4-3.1c-1.4-1-2.7-2-4.1-2.9
		c-1.4-0.9-2.8-1.8-4.3-2.7c-1.4-0.9-2.9-1.7-4.4-2.5c-1.5-0.8-3-1.6-4.5-2.3c-1.5-0.7-3.1-1.4-4.6-2.1c-1.6-0.6-3.1-1.3-4.7-1.8
		c-1.6-0.6-3.2-1.1-4.8-1.6c-1.6-0.5-3.2-0.9-4.9-1.4s-3.3-0.8-4.9-1.1c-1.7-0.3-3.3-0.6-5-0.9c-1.7-0.2-3.3-0.5-5-0.6
		s-3.4-0.3-5-0.4S190.6,84.4,188.9,84.4z"/>
	<path class="st1" d="M229.6,164.7c7.2,0,13.9,2.8,19,7.9c5.1,5.1,7.9,11.8,7.9,19c0,7.2-2.8,13.9-7.9,19c-5.1,5.1-11.8,7.9-19,7.9
		s-13.9-2.8-19-7.9c-5.1-5.1-7.9-11.8-7.9-19c0-7.2,2.8-13.9,7.9-19C215.7,167.5,222.4,164.7,229.6,164.7z M229.6,216.8
		c6.7,0,13.1-2.6,17.8-7.4c4.8-4.8,7.4-11.1,7.4-17.8c0-6.7-2.6-13.1-7.4-17.8c-4.8-4.8-11.1-7.4-17.8-7.4c-6.7,0-13.1,2.6-17.8,7.4
		s-7.4,11.1-7.4,17.8c0,6.7,2.6,13.1,7.4,17.8C216.5,214.2,222.9,216.8,229.6,216.8z"/>
	<path class="st2" d="M132.4,207.1H164v-1h-35.8v1H132.4z"/>
	<g>
		<defs>
			<rect id="SVGID_1_" x="124" y="200.6" width="43.9" height="37.9"/>
		</defs>
		<clipPath id="SVGID_2_">
			<use xlink:href="#SVGID_1_"  style="overflow:visible;"/>
		</clipPath>
		<g class="st3">
			<path class="st1" d="M124,200.6h43.9l-21.9,37.9L124,200.6z M165.8,201.8H126l19.9,34.4L165.8,201.8z"/>
		</g>
	</g>
	<path class="st1" d="M186.5,137.1v100h2.4V127.8h-2.4V137.1z"/>
	<path class="st1" d="M228.4,136.7v25.1h2.4v-34.1h-2.4V136.7z"/>
	<g>
		<defs>
			<rect id="SVGID_3_" x="186.5" y="105.4" width="44.2" height="22.5"/>
		</defs>
		<clipPath id="SVGID_4_">
			<use xlink:href="#SVGID_3_"  style="overflow:visible;"/>
		</clipPath>
		<g class="st4">
			<path class="st5" d="M230.8,127.8h-2.4c0-10.9-8.9-19.7-19.7-19.7c-10.9,0-19.7,8.9-19.7,19.7h-2.4c0-12.2,9.9-22.1,22.1-22.1
				S230.8,115.6,230.8,127.8z"/>
		</g>
	</g>
	<g>
		<defs>
			<rect id="SVGID_5_" x="224" y="161.8" width="11.2" height="3"/>
		</defs>
		<clipPath id="SVGID_6_">
			<use xlink:href="#SVGID_5_"  style="overflow:visible;"/>
		</clipPath>
		<g class="st6">
			<path class="st5" d="M233.4,164.8l1.8-3H224l1.8,3H233.4z"/>
		</g>
	</g>
	<g>
		<defs>
			<rect id="SVGID_7_" x="144.7" y="237" width="44.2" height="22.4"/>
		</defs>
		<clipPath id="SVGID_8_">
			<use xlink:href="#SVGID_7_"  style="overflow:visible;"/>
		</clipPath>
		<g class="st7">
			<path class="st5" d="M144.7,237.1h2.4c0,10.9,8.9,19.7,19.7,19.7c10.9,0,19.7-8.9,19.7-19.7h2.4c0,12.2-9.9,22.1-22.1,22.1
				S144.7,249.3,144.7,237.1z"/>
		</g>
	</g>
	<g>
		<defs>
			<rect id="SVGID_9_" x="142.6" y="235" width="6.8" height="2.2"/>
		</defs>
		<clipPath id="SVGID_10_">
			<use xlink:href="#SVGID_9_"  style="overflow:visible;"/>
		</clipPath>
		<g class="st8">
			<path class="st1" d="M148.2,237.2l1.1-2.2h-6.7l1.1,2.2H148.2z"/>
		</g>
	</g>
</g>
</svg>
